<svg width="462" height="343" viewBox="0 0 462 343" fill="none" xmlns="http://www.w3.org/2000/svg">
<path d="M270.784 244.206H265.069V207.512H323.567V192.604H329.282V213.223H270.784V244.206Z" fill="url(#paint0_linear_1490_7718)"/>
<path d="M246.322 245.48H240.606V190.671H169.431V162.204H175.146V184.959H246.322V245.48Z" fill="url(#paint1_linear_1490_7718)"/>
<path d="M258.713 245.871H252.998V119.275H290.881V84.822H296.596V124.987H258.713V245.871Z" fill="url(#paint2_linear_1490_7718)"/>
<path d="M332.049 138.318C332.049 138.318 340.824 133.445 348.083 138.318C355.343 143.191 354.909 147.847 354.909 147.847C354.909 147.847 366.394 143.84 376.145 150.987C385.895 158.133 387.846 165.605 387.846 172.643C387.846 179.68 384.163 196.464 361.627 197.763C356.481 197.763 288.857 197.817 282.895 197.817C274.616 197.817 269.425 187.566 269.425 179.14C269.425 161.382 285.027 154.561 292.719 154.128C292.07 147.956 293.586 140.593 298.136 136.154C302.686 131.714 309.512 127.924 318.071 129.224C326.631 130.523 332.048 138.319 332.048 138.319L332.049 138.318Z" fill="url(#paint3_linear_1490_7718)"/>
<path d="M375.065 299.495H334.371L330.698 296.316H178.969L174.415 299.495H131.194V236.823H174.415L178.969 240.002H330.698L334.371 236.823H375.065V299.495Z" fill="#260C61"/>
<path d="M178.91 281.951C186.521 281.951 192.69 275.769 192.69 268.144C192.69 260.519 186.521 254.338 178.91 254.338C171.3 254.338 165.13 260.519 165.13 268.144C165.13 275.769 171.3 281.951 178.91 281.951Z" fill="#5C50DC"/>
<path d="M178.91 276.652C183.6 276.652 187.402 272.843 187.402 268.144C187.402 263.446 183.6 259.637 178.91 259.637C174.221 259.637 170.419 263.446 170.419 268.144C170.419 272.843 174.221 276.652 178.91 276.652Z" fill="#260C61"/>
<path d="M282.453 272.383C284.789 272.383 286.684 270.485 286.684 268.144C286.684 265.803 284.789 263.905 282.453 263.905C280.116 263.905 278.222 265.803 278.222 268.144C278.222 270.485 280.116 272.383 282.453 272.383Z" fill="#5C50DC"/>
<path d="M298.025 272.383C300.362 272.383 302.256 270.485 302.256 268.144C302.256 265.803 300.362 263.905 298.025 263.905C295.688 263.905 293.794 265.803 293.794 268.144C293.794 270.485 295.688 272.383 298.025 272.383Z" fill="#5C50DC"/>
<path d="M313.568 272.383C315.905 272.383 317.799 270.485 317.799 268.144C317.799 265.803 315.905 263.905 313.568 263.905C311.231 263.905 309.337 265.803 309.337 268.144C309.337 270.485 311.231 272.383 313.568 272.383Z" fill="#5C50DC"/>
<path d="M266.91 272.383C269.246 272.383 271.141 270.485 271.141 268.144C271.141 265.803 269.246 263.905 266.91 263.905C264.573 263.905 262.679 265.803 262.679 268.144C262.679 270.485 264.573 272.383 266.91 272.383Z" fill="#5C50DC"/>
<path d="M177.792 72.5481C177.792 72.5481 192.316 64.4844 204.33 72.5481C216.343 80.6118 215.626 88.3167 215.626 88.3167C215.626 88.3167 234.632 81.6866 250.769 93.5133C266.906 105.34 270.133 117.704 270.133 129.352C270.133 141 264.037 168.774 226.741 170.925C218.225 170.925 106.311 171.014 96.4446 171.014C82.7427 171.014 74.1538 154.049 74.1538 140.103C74.1538 110.715 99.9737 99.4266 112.704 98.7098C111.629 88.4957 114.139 76.3111 121.669 68.9641C129.2 61.6172 140.497 55.3459 154.662 57.4953C168.826 59.6457 177.792 72.5472 177.792 72.5472L177.792 72.5481Z" fill="url(#paint4_linear_1490_7718)"/>
<path d="M298.716 49.8569C298.716 49.8569 304.805 46.4766 309.841 49.8569C314.878 53.2372 314.577 56.468 314.577 56.468C314.577 56.468 322.546 53.6884 329.311 58.6469C336.077 63.6055 337.429 68.7887 337.429 73.6721C337.429 78.5555 334.874 90.2003 319.237 91.1018C315.667 91.1018 268.746 91.1399 264.61 91.1399C258.866 91.1399 255.265 84.0271 255.265 78.1804C255.265 65.8597 266.09 61.1267 271.427 60.8259C270.976 56.5441 272.028 51.4352 275.186 48.3547C278.344 45.2743 283.079 42.6451 289.017 43.5466C294.956 44.4481 298.715 49.8569 298.715 49.8569H298.716Z" fill="url(#paint5_linear_1490_7718)"/>
<defs>
<linearGradient id="paint0_linear_1490_7718" x1="297.175" y1="192.604" x2="297.175" y2="246.97" gradientUnits="userSpaceOnUse">
<stop stop-color="#D50C2D"/>
<stop offset="1" stop-color="#5C50DC"/>
</linearGradient>
<linearGradient id="paint1_linear_1490_7718" x1="207.876" y1="162.204" x2="207.876" y2="249.94" gradientUnits="userSpaceOnUse">
<stop stop-color="#D50C2D"/>
<stop offset="1" stop-color="#5C50DC"/>
</linearGradient>
<linearGradient id="paint2_linear_1490_7718" x1="274.797" y1="84.822" x2="274.797" y2="254.496" gradientUnits="userSpaceOnUse">
<stop stop-color="#D50C2D"/>
<stop offset="1" stop-color="#5C50DC"/>
</linearGradient>
<linearGradient id="paint3_linear_1490_7718" x1="269.425" y1="163.391" x2="387.861" y2="163.391" gradientUnits="userSpaceOnUse">
<stop stop-color="#93C6FF"/>
<stop offset="1" stop-color="#009FF6"/>
</linearGradient>
<linearGradient id="paint4_linear_1490_7718" x1="74.1538" y1="114.041" x2="270.157" y2="114.041" gradientUnits="userSpaceOnUse">
<stop stop-color="#93C6FF"/>
<stop offset="1" stop-color="#009FF6"/>
</linearGradient>
<linearGradient id="paint5_linear_1490_7718" x1="263.781" y1="91.1399" x2="342.06" y2="67.9666" gradientUnits="userSpaceOnUse">
<stop stop-color="#2288F9"/>
<stop offset="1" stop-color="#260C61"/>
</linearGradient>
</defs>
</svg>
